<mxfile host="app.diagrams.net" agent="Mozilla/5.0 (Windows NT 10.0; Win64; x64) AppleWebKit/537.36 (KHTML, like Gecko) Chrome/130.0.0.0 Safari/537.36" version="24.8.1">
  <diagram id="C5RBs43oDa-KdzZeNtuy" name="Page-1">
    <mxGraphModel dx="1728" dy="915" grid="1" gridSize="10" guides="1" tooltips="1" connect="1" arrows="1" fold="1" page="1" pageScale="1" pageWidth="827" pageHeight="1169" math="0" shadow="0">
      <root>
        <mxCell id="WIyWlLk6GJQsqaUBKTNV-0" />
        <mxCell id="WIyWlLk6GJQsqaUBKTNV-1" parent="WIyWlLk6GJQsqaUBKTNV-0" />
        <mxCell id="DVgr-iX8nEGjhd_6VQTt-18" value="" style="edgeStyle=orthogonalEdgeStyle;rounded=0;orthogonalLoop=1;jettySize=auto;html=1;" edge="1" parent="WIyWlLk6GJQsqaUBKTNV-1" source="DVgr-iX8nEGjhd_6VQTt-5" target="DVgr-iX8nEGjhd_6VQTt-17">
          <mxGeometry relative="1" as="geometry" />
        </mxCell>
        <mxCell id="DVgr-iX8nEGjhd_6VQTt-5" value="Начало" style="strokeWidth=2;html=1;shape=mxgraph.flowchart.terminator;whiteSpace=wrap;" vertex="1" parent="WIyWlLk6GJQsqaUBKTNV-1">
          <mxGeometry x="100" y="200" width="100" height="60" as="geometry" />
        </mxCell>
        <mxCell id="DVgr-iX8nEGjhd_6VQTt-20" value="" style="edgeStyle=orthogonalEdgeStyle;rounded=0;orthogonalLoop=1;jettySize=auto;html=1;" edge="1" parent="WIyWlLk6GJQsqaUBKTNV-1" source="DVgr-iX8nEGjhd_6VQTt-17" target="DVgr-iX8nEGjhd_6VQTt-19">
          <mxGeometry relative="1" as="geometry" />
        </mxCell>
        <mxCell id="DVgr-iX8nEGjhd_6VQTt-17" value="Создание списка губернаторов&lt;div&gt;List&amp;lt;Governor&amp;gt; governors&lt;/div&gt;" style="whiteSpace=wrap;html=1;strokeWidth=2;" vertex="1" parent="WIyWlLk6GJQsqaUBKTNV-1">
          <mxGeometry x="90" y="340" width="120" height="60" as="geometry" />
        </mxCell>
        <mxCell id="DVgr-iX8nEGjhd_6VQTt-30" value="" style="edgeStyle=orthogonalEdgeStyle;rounded=0;orthogonalLoop=1;jettySize=auto;html=1;" edge="1" parent="WIyWlLk6GJQsqaUBKTNV-1" source="DVgr-iX8nEGjhd_6VQTt-19" target="DVgr-iX8nEGjhd_6VQTt-29">
          <mxGeometry relative="1" as="geometry" />
        </mxCell>
        <mxCell id="DVgr-iX8nEGjhd_6VQTt-19" value="Инициализация KMeans" style="shape=process;whiteSpace=wrap;html=1;backgroundOutline=1;strokeWidth=2;" vertex="1" parent="WIyWlLk6GJQsqaUBKTNV-1">
          <mxGeometry x="90" y="480" width="120" height="60" as="geometry" />
        </mxCell>
        <mxCell id="DVgr-iX8nEGjhd_6VQTt-23" value="" style="strokeWidth=2;html=1;shape=mxgraph.flowchart.annotation_2;align=left;labelPosition=right;pointerEvents=1;" vertex="1" parent="WIyWlLk6GJQsqaUBKTNV-1">
          <mxGeometry x="290" y="460" width="50" height="100" as="geometry" />
        </mxCell>
        <mxCell id="DVgr-iX8nEGjhd_6VQTt-25" value="" style="endArrow=none;dashed=1;html=1;rounded=0;exitX=1;exitY=0.5;exitDx=0;exitDy=0;entryX=0;entryY=0.5;entryDx=0;entryDy=0;entryPerimeter=0;" edge="1" parent="WIyWlLk6GJQsqaUBKTNV-1" source="DVgr-iX8nEGjhd_6VQTt-19" target="DVgr-iX8nEGjhd_6VQTt-23">
          <mxGeometry width="50" height="50" relative="1" as="geometry">
            <mxPoint x="390" y="580" as="sourcePoint" />
            <mxPoint x="440" y="530" as="targetPoint" />
          </mxGeometry>
        </mxCell>
        <mxCell id="DVgr-iX8nEGjhd_6VQTt-28" value="Параметры:&lt;div&gt;k = 2&lt;/div&gt;&lt;div&gt;governors&lt;/div&gt;" style="text;html=1;align=left;verticalAlign=middle;resizable=0;points=[];autosize=1;strokeColor=none;fillColor=none;" vertex="1" parent="WIyWlLk6GJQsqaUBKTNV-1">
          <mxGeometry x="330" y="480" width="90" height="60" as="geometry" />
        </mxCell>
        <mxCell id="DVgr-iX8nEGjhd_6VQTt-36" value="" style="edgeStyle=orthogonalEdgeStyle;rounded=0;orthogonalLoop=1;jettySize=auto;html=1;" edge="1" parent="WIyWlLk6GJQsqaUBKTNV-1" source="DVgr-iX8nEGjhd_6VQTt-29" target="DVgr-iX8nEGjhd_6VQTt-35">
          <mxGeometry relative="1" as="geometry" />
        </mxCell>
        <mxCell id="DVgr-iX8nEGjhd_6VQTt-29" value="Запуск кластеризации (run)" style="shape=process;whiteSpace=wrap;html=1;backgroundOutline=1;strokeWidth=2;" vertex="1" parent="WIyWlLk6GJQsqaUBKTNV-1">
          <mxGeometry x="90" y="620" width="120" height="60" as="geometry" />
        </mxCell>
        <mxCell id="DVgr-iX8nEGjhd_6VQTt-31" value="" style="strokeWidth=2;html=1;shape=mxgraph.flowchart.annotation_2;align=left;labelPosition=right;pointerEvents=1;" vertex="1" parent="WIyWlLk6GJQsqaUBKTNV-1">
          <mxGeometry x="290" y="600" width="50" height="100" as="geometry" />
        </mxCell>
        <mxCell id="DVgr-iX8nEGjhd_6VQTt-32" value="" style="endArrow=none;dashed=1;html=1;rounded=0;exitX=1;exitY=0.5;exitDx=0;exitDy=0;entryX=0;entryY=0.5;entryDx=0;entryDy=0;entryPerimeter=0;" edge="1" parent="WIyWlLk6GJQsqaUBKTNV-1" source="DVgr-iX8nEGjhd_6VQTt-29" target="DVgr-iX8nEGjhd_6VQTt-31">
          <mxGeometry width="50" height="50" relative="1" as="geometry">
            <mxPoint x="390" y="580" as="sourcePoint" />
            <mxPoint x="440" y="530" as="targetPoint" />
          </mxGeometry>
        </mxCell>
        <mxCell id="DVgr-iX8nEGjhd_6VQTt-33" value="Параметры:&lt;div&gt;maxiterations = 100&lt;/div&gt;" style="text;html=1;align=left;verticalAlign=middle;whiteSpace=wrap;rounded=0;" vertex="1" parent="WIyWlLk6GJQsqaUBKTNV-1">
          <mxGeometry x="330" y="635" width="110" height="30" as="geometry" />
        </mxCell>
        <mxCell id="DVgr-iX8nEGjhd_6VQTt-38" value="" style="edgeStyle=orthogonalEdgeStyle;rounded=0;orthogonalLoop=1;jettySize=auto;html=1;" edge="1" parent="WIyWlLk6GJQsqaUBKTNV-1" source="DVgr-iX8nEGjhd_6VQTt-35" target="DVgr-iX8nEGjhd_6VQTt-37">
          <mxGeometry relative="1" as="geometry" />
        </mxCell>
        <mxCell id="DVgr-iX8nEGjhd_6VQTt-35" value="Остались кластеры?" style="rhombus;whiteSpace=wrap;html=1;strokeWidth=2;" vertex="1" parent="WIyWlLk6GJQsqaUBKTNV-1">
          <mxGeometry x="80" y="750" width="140" height="80" as="geometry" />
        </mxCell>
        <mxCell id="DVgr-iX8nEGjhd_6VQTt-37" value="Вывод данных по кластерам" style="whiteSpace=wrap;html=1;strokeWidth=2;" vertex="1" parent="WIyWlLk6GJQsqaUBKTNV-1">
          <mxGeometry x="90" y="920" width="120" height="60" as="geometry" />
        </mxCell>
        <mxCell id="DVgr-iX8nEGjhd_6VQTt-39" value="Да" style="text;html=1;align=center;verticalAlign=middle;whiteSpace=wrap;rounded=0;rotation=270;" vertex="1" parent="WIyWlLk6GJQsqaUBKTNV-1">
          <mxGeometry x="100" y="860" width="60" height="30" as="geometry" />
        </mxCell>
        <mxCell id="DVgr-iX8nEGjhd_6VQTt-44" value="" style="endArrow=none;html=1;rounded=0;exitX=1.004;exitY=0.583;exitDx=0;exitDy=0;exitPerimeter=0;" edge="1" parent="WIyWlLk6GJQsqaUBKTNV-1">
          <mxGeometry width="50" height="50" relative="1" as="geometry">
            <mxPoint x="210.48000000000002" y="950" as="sourcePoint" />
            <mxPoint x="280" y="950" as="targetPoint" />
          </mxGeometry>
        </mxCell>
        <mxCell id="DVgr-iX8nEGjhd_6VQTt-45" value="" style="endArrow=none;html=1;rounded=0;" edge="1" parent="WIyWlLk6GJQsqaUBKTNV-1">
          <mxGeometry width="50" height="50" relative="1" as="geometry">
            <mxPoint x="280" y="950" as="sourcePoint" />
            <mxPoint x="280" y="790" as="targetPoint" />
          </mxGeometry>
        </mxCell>
        <mxCell id="DVgr-iX8nEGjhd_6VQTt-46" value="" style="endArrow=classic;html=1;rounded=0;entryX=1;entryY=0.5;entryDx=0;entryDy=0;" edge="1" parent="WIyWlLk6GJQsqaUBKTNV-1" target="DVgr-iX8nEGjhd_6VQTt-35">
          <mxGeometry width="50" height="50" relative="1" as="geometry">
            <mxPoint x="280" y="790" as="sourcePoint" />
            <mxPoint x="310" y="870" as="targetPoint" />
          </mxGeometry>
        </mxCell>
        <mxCell id="DVgr-iX8nEGjhd_6VQTt-47" value="" style="endArrow=none;html=1;rounded=0;exitX=0;exitY=0.5;exitDx=0;exitDy=0;" edge="1" parent="WIyWlLk6GJQsqaUBKTNV-1" source="DVgr-iX8nEGjhd_6VQTt-35">
          <mxGeometry width="50" height="50" relative="1" as="geometry">
            <mxPoint x="260" y="930" as="sourcePoint" />
            <mxPoint x="30" y="790" as="targetPoint" />
          </mxGeometry>
        </mxCell>
        <mxCell id="DVgr-iX8nEGjhd_6VQTt-48" value="" style="endArrow=none;html=1;rounded=0;" edge="1" parent="WIyWlLk6GJQsqaUBKTNV-1">
          <mxGeometry width="50" height="50" relative="1" as="geometry">
            <mxPoint x="30" y="1080" as="sourcePoint" />
            <mxPoint x="30" y="790" as="targetPoint" />
          </mxGeometry>
        </mxCell>
        <mxCell id="DVgr-iX8nEGjhd_6VQTt-49" value="Конец" style="strokeWidth=2;html=1;shape=mxgraph.flowchart.terminator;whiteSpace=wrap;" vertex="1" parent="WIyWlLk6GJQsqaUBKTNV-1">
          <mxGeometry x="100" y="1050" width="100" height="60" as="geometry" />
        </mxCell>
        <mxCell id="DVgr-iX8nEGjhd_6VQTt-50" value="" style="endArrow=classic;html=1;rounded=0;entryX=0;entryY=0.5;entryDx=0;entryDy=0;entryPerimeter=0;" edge="1" parent="WIyWlLk6GJQsqaUBKTNV-1" target="DVgr-iX8nEGjhd_6VQTt-49">
          <mxGeometry width="50" height="50" relative="1" as="geometry">
            <mxPoint x="30" y="1080" as="sourcePoint" />
            <mxPoint x="310" y="1050" as="targetPoint" />
          </mxGeometry>
        </mxCell>
        <mxCell id="DVgr-iX8nEGjhd_6VQTt-51" value="Нет" style="text;html=1;align=center;verticalAlign=middle;whiteSpace=wrap;rounded=0;rotation=270;" vertex="1" parent="WIyWlLk6GJQsqaUBKTNV-1">
          <mxGeometry x="-10" y="920" width="60" height="30" as="geometry" />
        </mxCell>
      </root>
    </mxGraphModel>
  </diagram>
</mxfile>
